# xmcd
#
# Track frame offsets:
#	150
#	14558
#	38156
#	61852
#	80319
#	105177
#	121921
#	142010
#	157121
#	175606
#	193356
#	214385
#	226950
#
# Disc length: 3421 seconds
#
# Revision: 0
# Processed by: cddbd v1.5.2PL0 Copyright (c) Steve Scherf et al.
# Submitted via: dBpowerAMP V4.0
#
DISCID=ae0d5b0d
DTITLE=Verbeke and Fils - La P'tite Ceinture
DYEAR=2010
DGENRE=Blues
TTITLE0=Tu m'as menti
TTITLE1=Frankie et Johnny
TTITLE2=La Tangente
TTITLE3=Mets ta casquette Blues
TTITLE4=Catfish Blues
TTITLE5=Père et Fils 
TTITLE6=La P'tite Ceinture
TTITLE7=T'efface pas comme ça
TTITLE8=Dis moi pourquoii
TTITLE9=Fils et Père
TTITLE10=Celle que j'aime 
TTITLE11=Ragtime blues
TTITLE12=Let me go home whisky
EXTD=
EXTT0=
EXTT1=
EXTT2=
EXTT3=
EXTT4=
EXTT5=
EXTT6=
EXTT7=
EXTT8=
EXTT9=
EXTT10=
EXTT11=
EXTT12=
PLAYORDER=
